<svg width="12" height="9" viewBox="0 0 12 9" fill="none" xmlns="http://www.w3.org/2000/svg">
<path fill-rule="evenodd" clip-rule="evenodd" d="M10.7334 0.0443651C10.5843 0.0884718 9.8229 0.8172 7.42692 3.2092L4.31416 6.31669L2.91664 4.92343C1.50644 3.5175 1.30545 3.35856 0.938038 3.35856C0.584188 3.35856 0.185845 3.64141 0.0561261 3.98474C-0.0247269 4.19875 -0.0176432 4.48956 0.0736138 4.70235C0.142126 4.86217 3.56523 8.33348 3.84625 8.52817C4.02323 8.65081 4.32838 8.68644 4.59557 8.61566C4.81594 8.55733 5.17637 8.21489 8.31386 5.0832C10.6351 2.76625 11.8243 1.54067 11.8972 1.39031C12.2717 0.617641 11.5637 -0.201182 10.7334 0.0443651Z" fill="#2BC356"/>
</svg>
