<svg width="36" height="33" viewBox="0 0 36 33" fill="none" xmlns="http://www.w3.org/2000/svg">
<path fill-rule="evenodd" clip-rule="evenodd" d="M7.79827 1.10576C6.60273 1.39887 5.49283 2.52137 5.23081 3.70244C5.19301 3.8728 5.06042 4.8539 4.93606 5.88268L4.71001 7.75324H3.74845C1.84962 7.75324 0.679861 8.59187 0.164613 10.3227C-0.0555956 11.0626 -0.0545416 29.8946 0.165807 30.6171C0.486002 31.6669 1.26692 32.4643 2.34822 32.8455C2.86122 33.0263 27.678 33.059 28.3061 32.8796C29.9991 32.3962 31.0815 31.0174 31.0815 29.3443C31.0815 28.8339 31.0815 28.8339 31.4052 28.7514C32.5802 28.4518 33.4961 27.5509 33.8704 26.3264C33.9934 25.9243 36 8.05973 36 7.36726C36 5.67162 34.8217 4.19516 33.1894 3.84533C32.735 3.74791 8.74312 0.990118 8.42609 0.9988C8.30748 1.00207 8.02495 1.05025 7.79827 1.10576ZM20.8533 4.23345C34.7183 5.85621 33.4805 5.64287 33.9617 6.49268C34.265 7.02838 34.2836 6.79426 33.1551 16.7073C32.0254 26.6307 32.1085 26.0885 31.6458 26.5577C31.0272 27.1848 31.0815 27.9107 31.0815 19.0117C31.0815 12.1872 31.0672 11.0707 30.9746 10.7036C30.6315 9.3427 29.6641 8.30353 28.3604 7.89577C27.9131 7.7558 27.7113 7.75324 17.232 7.75324C6.55923 7.75324 6.55923 7.75324 6.55881 7.59312C6.55431 6.00366 7.03113 3.74229 7.46023 3.31795C8.09486 2.69031 7.06935 2.62021 20.8533 4.23345ZM28.0136 9.69139C29.2052 10.2371 29.2159 10.2828 29.2393 14.9138L29.2591 18.8366L24.4055 21.6999C18.887 24.9555 18.9456 24.9282 18.0371 24.6549C17.5491 24.5082 17.2953 24.304 14.5687 21.8663C12.8129 20.2964 12.0391 19.6508 11.6914 19.4658C10.3917 18.774 8.83931 18.8651 7.61847 19.7047C7.22583 19.9748 2.09499 23.7404 1.86698 23.9259C1.72638 24.0403 1.77894 11.1054 1.92059 10.7158C2.07932 10.2794 2.58143 9.76376 2.96444 9.64378C3.51271 9.472 27.6347 9.51783 28.0136 9.69139ZM17.16 12.4433C13.9919 13.4697 13.6507 17.8888 16.6247 19.377C19.3895 20.7606 22.5479 18.2066 21.8389 15.1606C21.3634 13.1176 19.113 11.8107 17.16 12.4433ZM18.9742 14.2685C19.651 14.5461 20.1547 15.3651 20.1077 16.1117C19.9677 18.3388 16.8036 18.5621 16.4106 16.3726C16.1435 14.8842 17.5869 13.6995 18.9742 14.2685ZM10.2858 20.8708C10.8206 20.9982 10.857 21.027 13.6448 23.5155C16.6337 26.1835 16.8966 26.3594 18.167 26.5419C19.4541 26.7268 19.6144 26.6558 24.8807 23.5676L29.2546 21.0027L29.2527 25.4258C29.2503 30.7109 29.2595 30.6702 27.974 31.0568C27.5252 31.1918 3.36157 31.2237 2.88602 31.0899C1.98572 30.8367 1.82131 30.3927 1.79383 28.141L1.77128 26.2908L5.15879 23.7646C9.41991 20.5869 9.32343 20.6413 10.2858 20.8708Z" fill="#2BC356"/>
</svg>
