<svg width="49" height="48" viewBox="0 0 49 48" fill="none" xmlns="http://www.w3.org/2000/svg">
<path fill-rule="evenodd" clip-rule="evenodd" d="M19.6345 0.290493C19.4921 0.446354 19.4793 1.30824 19.4793 10.7865V21.1127H15.1199H10.7606V16.7471V12.3815H13.0429C15.2386 12.3815 15.332 12.3741 15.5025 12.1874C15.6769 11.9965 15.6704 11.9298 15.1006 8.03351C14.6286 4.80612 14.4912 4.0517 14.3575 3.95482C14.2302 3.86268 13.2855 3.83602 10.1478 3.83602C6.41309 3.83602 6.09087 3.84856 5.9555 3.99857C5.85143 4.11393 5.64303 5.29079 5.23728 8.0545C4.71256 11.6282 4.6774 11.9656 4.80903 12.1647L4.95237 12.3815H7.29397H9.63556V16.7471V21.1127L7.83087 21.1134C5.90656 21.1142 5.04359 21.2068 4.42156 21.4794C3.91381 21.702 3.31025 22.2495 3.00631 22.7635C2.63478 23.3915 2.64087 24.0609 3.05028 27.6242L3.40878 30.7453L2.96028 30.9491C2.71362 31.0613 2.2669 31.3776 1.96765 31.6521C0.979903 32.5582 0.635559 33.4846 0.635559 35.2362C0.635559 36.1823 0.662184 36.3665 0.84959 36.7177L1.06362 37.1187L0.84959 37.5375C0.644747 37.9384 0.635559 38.0504 0.635559 40.1406C0.635559 42.1765 0.649059 42.3524 0.834403 42.7318C1.1 43.2752 1.62003 43.6106 2.28181 43.665L2.79181 43.7069V45.1815C2.79181 47.1241 2.70172 47.0277 4.51578 47.0277C5.66515 47.0277 5.89306 47.0037 6.056 46.8652C6.18003 46.7597 6.40925 46.18 6.70775 45.2165L7.16834 43.7303L8.4019 43.7044L9.63556 43.6785V44.7958V45.9131H8.74493H7.85431V46.4704V47.0277H10.2449H12.6356V46.4704V45.9131H11.6981H10.7606V44.7985V43.6838H15.1199H19.4793V45.2485C19.4793 46.6463 19.4976 46.8295 19.6508 46.9669C19.8087 47.1085 20.9447 47.1206 34.0829 47.1206H48.3437L48.4896 46.9141C48.6207 46.7286 48.6356 44.3609 48.6356 23.5678C48.6356 1.26839 48.6294 0.422483 48.4641 0.274331C48.3061 0.132681 47.1708 0.120605 34.0411 0.120605C20.3535 0.120605 19.7834 0.127293 19.6345 0.290493ZM47.5106 2.95361V4.67199H34.0574H20.6043V2.95361V1.23523H34.0574H47.5106V2.95361ZM13.9664 7.87653C14.2086 9.51132 14.4089 10.9638 14.4117 11.1043L14.4168 11.3597H10.1512C7.80509 11.3597 5.88556 11.3282 5.88556 11.2897C5.88556 11.1964 6.6065 6.28262 6.73747 5.48353L6.8404 4.85544L10.1832 4.87977L13.5262 4.9042L13.9664 7.87653ZM33.5418 17.5366V29.2866H30.982H28.422L28.6801 27.0341C29.0097 24.158 29.0167 23.5373 28.7265 22.924C28.4335 22.3043 27.7156 21.6575 27.0214 21.3873C26.4881 21.1798 26.3355 21.1686 23.534 21.1326L20.6043 21.095V13.4407V5.78661H27.0731H33.5418V17.5366ZM47.5106 17.5366V29.2866H41.0418H34.5731V17.5366V5.78661H41.0418H47.5106V17.5366ZM30.0946 16.3059L30.1199 18.2797H30.6356H31.1512L31.1765 16.3059L31.2018 14.3321H30.6356H30.0693L30.0946 16.3059ZM37.1981 16.3337V18.3354L37.7371 18.3076L38.2762 18.2797L38.3015 16.3059L38.3268 14.3321H37.7624H37.1981V16.3337ZM26.453 22.3589C27.0597 22.5398 27.5298 22.92 27.7464 23.405L27.9286 23.8133L27.5929 26.8054C27.4083 28.451 27.2332 29.9543 27.2037 30.1458L27.1503 30.4941H15.8148C9.58025 30.4941 4.47837 30.4628 4.47725 30.4245C4.47612 30.3861 4.31253 28.9205 4.11378 27.1674C3.70222 23.5382 3.70643 23.4512 4.319 22.8622C4.99747 22.2098 4.42803 22.241 15.7847 22.2338C24.3487 22.2283 26.0837 22.2487 26.453 22.3589ZM47.5106 34.2095V38.0178H39.3662H31.222L30.9892 37.5518L30.7564 37.0858L30.9773 36.6537C31.1683 36.2797 31.1978 36.0894 31.1958 35.2388C31.1937 34.3282 31.1458 33.9342 30.9718 33.3968L30.9042 33.1878H33.9105H36.9168V32.6305V32.0732H33.7762H30.6356V32.3193C30.6356 32.5573 30.6267 32.5533 30.3667 32.1977C29.9815 31.6709 29.3875 31.1948 28.8021 30.9438C28.4673 30.8002 28.2944 30.6711 28.2934 30.5638C28.2919 30.4101 28.8113 30.4012 37.9012 30.4012H47.5106V34.2095ZM28.2999 31.8985C28.94 32.1959 29.4282 32.6653 29.7648 33.307C29.992 33.74 30.0229 33.9127 30.0557 34.9311C30.086 35.8701 30.0656 36.1111 29.9399 36.3011L29.7875 36.5317H15.9455C3.1969 36.5317 2.0899 36.5195 1.93203 36.3779C1.78456 36.2458 1.76056 36.0724 1.76056 35.1405C1.76056 33.8832 1.87643 33.4516 2.3944 32.779C2.75225 32.3143 3.49259 31.828 4.04178 31.6971C4.20509 31.6582 9.61212 31.6328 16.0574 31.6408L27.7762 31.6552L28.2999 31.8985ZM29.8856 37.8321C30.0618 38.0067 30.0731 38.1417 30.0731 40.087C30.0731 41.8096 30.0486 42.1909 29.9271 42.3627L29.7812 42.5692H15.9423C3.19662 42.5692 2.0899 42.5571 1.93203 42.4155C1.77547 42.2751 1.76056 42.0776 1.76056 40.1398C1.76056 38.1417 1.77153 38.007 1.94806 37.8321C2.13387 37.648 2.26053 37.6463 15.9168 37.6463C29.5731 37.6463 29.6997 37.648 29.8856 37.8321ZM47.5106 42.5228V46.006H38.4637H29.4168V44.8531V43.7002L29.7994 43.6361C30.2223 43.5653 30.7519 43.1608 30.9709 42.7412L31.1091 42.4763H34.013H36.9168V41.9655V41.4546H34.0574H31.1981V40.2471V39.0396H39.3543H47.5106V42.5228ZM5.93759 43.9393C5.90637 44.0797 5.7589 44.5709 5.60984 45.0307L5.33872 45.8667L4.62781 45.8938L3.91681 45.9209V44.8024V43.6838H4.95547H5.99422L5.93759 43.9393ZM25.2446 44.4502C25.3818 44.8717 25.5514 45.3941 25.6216 45.6112L25.7492 46.006H23.1767H20.6043V44.8449V43.6838H22.7997H24.9952L25.2446 44.4502ZM28.2918 44.8024V45.9209L27.5713 45.8938L26.8509 45.8667L26.542 44.8914C26.372 44.3549 26.2322 43.8639 26.2312 43.8C26.2298 43.714 26.4971 43.6838 27.2606 43.6838H28.2918V44.8024Z" fill="white"/>
</svg>
