<svg width="51" height="42" viewBox="0 0 51 42" fill="none" xmlns="http://www.w3.org/2000/svg">
<path fill-rule="evenodd" clip-rule="evenodd" d="M4.53287 0.166517C2.53703 0.608714 0.786192 2.52406 0.231527 4.8718C-0.0686846 6.14247 -0.0810194 39.5746 0.218396 40.2436C0.484289 40.8375 0.983547 41.3714 1.56328 41.6818C2.30237 42.0775 43.9155 42.1183 44.704 41.7241C46.3064 40.923 46.3299 40.8224 46.3644 34.6099L46.3935 29.3865H47.4655C49.2293 29.3865 50.1871 28.8984 50.7255 27.7249C51.091 26.9286 51.0917 19.027 50.7263 18.2311C50.1663 17.0107 49.4801 16.6374 47.7031 16.586L46.3851 16.548V11.5294C46.3851 5.98128 46.3733 5.85864 45.7608 5.05066C45.1719 4.27376 44.5375 4.00729 43.1771 3.96551L42.0083 3.92958L42.0061 3.05709C42.0027 1.71234 41.5557 0.921612 40.4664 0.333464C39.878 0.0157204 5.9252 -0.14194 4.53287 0.166517ZM39.7174 1.8594C40.1729 2.09327 40.4167 2.59895 40.4167 3.30973V3.95087H21.3607C2.30476 3.95087 2.30476 3.95087 2.52609 3.62283C3.1271 2.73198 3.84719 2.1513 4.66825 1.89553C5.33313 1.68831 39.316 1.65329 39.7174 1.8594ZM44.1751 5.82433C44.4367 6.01015 44.694 6.4802 44.694 6.772C44.694 6.96953 44.6377 6.97892 43.4579 6.97892C42.0803 6.97892 41.8093 7.11458 41.8093 7.80457C41.8093 8.43652 42.1455 8.59388 43.4959 8.59388H44.694V12.5808V16.5677H39.2268C32.9958 16.5677 33.0942 16.5559 32.2923 17.3994C31.4819 18.252 31.5174 18.0161 31.4847 22.7618C31.4374 29.6658 31.0424 29.3232 39.0987 29.3652L44.694 29.3944V33.2764V37.1585H43.4959C42.1401 37.1585 41.8093 37.3148 41.8093 37.9558C41.8093 38.6393 42.1443 38.8193 43.4916 38.8596C44.834 38.8998 44.9121 38.9612 44.5432 39.6852C44.2126 40.3338 45.8546 40.2876 23.1879 40.2859C0.739935 40.2843 2.27143 40.327 1.84877 39.6907C1.37597 38.9788 1.47883 38.8744 2.65162 38.8744C4.16899 38.8744 4.5067 38.7024 4.5067 37.9294C4.5067 37.2986 4.19684 37.1585 2.80222 37.1585H1.62197V22.8762V8.59388H2.83416C4.24031 8.59388 4.5067 8.46751 4.5067 7.80053C4.5067 7.10277 4.25663 6.97892 2.84808 6.97892C1.4835 6.97892 1.47385 6.97287 1.78421 6.30912C2.10491 5.62347 0.368004 5.67525 23.2104 5.6708C41.8505 5.66717 43.976 5.68271 44.1751 5.82433ZM6.21506 7.21249C5.91873 7.53265 5.9253 8.08487 6.22899 8.37445C6.59595 8.72419 9.93269 8.71248 10.2589 8.36032C10.5513 8.04429 10.5506 7.4619 10.2574 7.18473C9.90076 6.8475 6.53159 6.87072 6.21506 7.21249ZM12.1835 7.21249C11.8872 7.53265 11.8937 8.08487 12.1974 8.37445C12.5644 8.72419 15.9011 8.71248 16.2273 8.36032C16.5099 8.05499 16.5186 7.45887 16.2446 7.18079C15.9154 6.8468 12.4974 6.87355 12.1835 7.21249ZM18.1519 7.21249C17.8554 7.53285 17.8676 8.02935 18.1799 8.34609C18.5458 8.71753 21.8545 8.73458 22.1809 8.36678C22.5609 7.93831 22.5259 7.30373 22.1097 7.07774C21.682 6.84548 18.3879 6.95773 18.1519 7.21249ZM24.1203 7.21249C23.8238 7.53285 23.836 8.02935 24.1483 8.34609C24.4384 8.64061 27.7443 8.73277 28.1029 8.45631C28.5193 8.13523 28.5044 7.30928 28.0781 7.07774C27.6504 6.84548 24.3563 6.95773 24.1203 7.21249ZM30.0787 7.24488C29.339 8.19892 29.9346 8.59388 32.1126 8.59388C34.0013 8.59388 34.157 8.55896 34.3472 8.09304C34.4937 7.73412 34.3462 7.24054 34.0433 7.07602C33.5764 6.82247 30.2978 6.96207 30.0787 7.24488ZM36.0471 7.24488C35.768 7.60482 35.783 8.03965 36.0851 8.34609C36.3283 8.59297 39.4263 8.74074 39.9646 8.5312C40.4296 8.35012 40.5108 7.43081 40.0882 7.13042C39.6545 6.82217 36.3012 6.91715 36.0471 7.24488ZM48.96 18.5904C49.3776 19.0141 49.383 19.0797 49.3494 23.2626C49.3196 26.9798 49.3196 26.9798 48.9459 27.3271C48.3728 27.8599 33.9167 27.8258 33.4454 27.2905C32.9541 26.7326 32.9962 19.1313 33.4933 18.6268C33.9998 18.1129 48.4558 18.0788 48.96 18.5904ZM38.1785 19.832C34.4411 21.0874 35.2507 26.5998 39.1733 26.6042C42.3173 26.6077 43.7599 22.7196 41.4128 20.568C40.5918 19.8152 39.1827 19.4947 38.1785 19.832ZM40.0751 21.6635C41.1219 22.2859 41.1909 23.7686 40.2101 24.5632C38.7688 25.7308 36.7828 24.009 37.6291 22.3255C38.0788 21.4314 39.1824 21.1327 40.0751 21.6635ZM6.26092 37.3677C5.78713 37.7458 5.93166 38.5587 6.50891 38.7628C7.37801 39.0702 10.1722 38.8563 10.3777 38.4667C10.8994 37.4775 10.3772 37.1585 8.23697 37.1585C6.65364 37.1585 6.50304 37.1744 6.26092 37.3677ZM12.2114 37.4063C11.7756 37.8484 11.9254 38.5462 12.5041 38.7695C12.8665 38.9093 15.5341 38.9041 15.9334 38.7628C16.5107 38.5587 16.6552 37.7458 16.1814 37.3677C15.7443 37.0188 12.5628 37.0497 12.2114 37.4063ZM18.1799 37.4063C17.3339 38.2645 18.0076 38.8142 19.9577 38.8571C22.3032 38.9089 23.0775 38.3963 22.1809 37.3856C21.8545 37.0178 18.5458 37.0348 18.1799 37.4063ZM24.1483 37.4063C23.3023 38.2645 23.976 38.8142 25.9262 38.8571C28.2754 38.9089 29.0594 38.3908 28.1527 37.3856C27.8209 37.0178 24.5142 37.0348 24.1483 37.4063ZM30.1167 37.4063C29.2702 38.2652 29.9598 38.8155 31.9357 38.8577C34.251 38.9071 35.1299 38.3085 34.1299 37.3632C33.7638 37.0171 30.4652 37.0525 30.1167 37.4063ZM36.0851 37.4063C35.7689 37.727 35.7673 38.1707 36.0809 38.5407C36.3958 38.912 39.7161 38.9914 40.1021 38.6368C40.4977 38.2736 40.4618 37.6263 40.0274 37.2879C39.6825 37.0191 36.3685 37.1186 36.0851 37.4063Z" fill="white"/>
</svg>
