<svg width="16" height="21" viewBox="0 0 16 21" fill="none" xmlns="http://www.w3.org/2000/svg">
<path fill-rule="evenodd" clip-rule="evenodd" d="M1.25109 0.0871062C0.60932 0.307281 0.149665 0.831609 0.0417888 1.46656C-0.0142968 1.79657 -0.013744 19.2047 0.0423416 19.5366C0.153195 20.1924 0.658262 20.7255 1.35808 20.9256C1.688 21.0198 14.2563 21.027 14.6293 20.9331C15.2385 20.7797 15.7212 20.3333 15.9108 19.7481C16.0237 19.3993 16.0324 1.64075 15.9198 1.2747C15.7344 0.671806 15.2975 0.24736 14.6752 0.0652609C14.3336 -0.0346619 1.54538 -0.0138822 1.25109 0.0871062ZM14.608 0.821649C14.8216 0.91522 15.1228 1.23905 15.1797 1.43639C15.2864 1.8069 15.2315 19.435 15.1229 19.6598C15.0055 19.9028 14.7922 20.095 14.5364 20.1884C14.2417 20.2959 1.57838 20.2694 1.37228 20.1609C1.18081 20.06 0.966839 19.8451 0.869295 19.6555C0.756656 19.4367 0.716304 1.82985 0.827624 1.46344C0.910498 1.19052 1.11409 0.961246 1.37921 0.842265C1.68094 0.706849 14.3009 0.687176 14.608 0.821649ZM1.94079 2.20524C1.77236 2.36762 1.76207 6.38118 1.92965 6.5427C2.08557 6.693 2.04088 6.69201 8.17402 6.67918C13.9453 6.66709 13.9453 6.66709 14.0632 6.55344C14.2502 6.37319 14.2489 2.35123 14.0618 2.1961C13.8646 2.03265 2.11066 2.04154 1.94079 2.20524ZM13.437 4.39239V5.94985H8.01554H2.59408V4.39239V2.83494H8.01554H13.437V4.39239ZM9.08568 4.54269C9.07007 4.55769 9.05732 4.72368 9.05732 4.91156V5.25309H9.44001H9.8227V4.88422V4.51535H9.46837C9.27345 4.51535 9.10124 4.52765 9.08568 4.54269ZM10.5314 4.54269C10.5158 4.55769 10.503 4.72368 10.503 4.91156V5.25309H10.8857H11.2684V4.88422V4.51535H10.9141C10.7192 4.51535 10.547 4.52765 10.5314 4.54269ZM11.9913 4.88262V5.25309H12.3756H12.76L12.7477 4.89447L12.7354 4.53584L12.3633 4.524L11.9913 4.51215V4.88262ZM1.93309 7.44397C1.76467 7.60628 1.76951 10.5953 1.93845 10.7483C2.10637 10.9003 5.21016 10.9058 5.36741 10.7543C5.46414 10.6611 5.46427 10.6593 5.47664 9.17635C5.49 7.57664 5.48812 7.55099 5.34942 7.42647C5.18992 7.28323 2.08332 7.29913 1.93309 7.44397ZM6.2902 7.44906C6.18713 7.5548 6.18713 7.5548 6.17493 9.0354C6.16175 10.6399 6.16914 10.7023 6.38528 10.81C6.6251 10.9295 9.57331 10.8748 9.71304 10.7483C9.88189 10.5953 9.88669 7.60624 9.71831 7.44397C9.54997 7.28167 6.44893 7.2863 6.2902 7.44906ZM10.6528 7.44123C10.5045 7.58419 10.4969 7.67878 10.5112 9.2082C10.5286 11.0564 10.3163 10.8681 12.3824 10.8681C14.056 10.8681 14.0773 10.8648 14.161 10.5912C14.2667 10.2457 14.1961 7.57009 14.0781 7.44906C13.9213 7.28831 10.8188 7.28122 10.6528 7.44123ZM4.72015 9.10573V10.1304H3.65712H2.59408V9.10573V8.08109H3.65712H4.72015V9.10573ZM9.05732 9.10573V10.1304H7.99428H6.93125V9.10573V8.08109H7.99428H9.05732V9.10573ZM13.437 9.10573V10.1304H12.3527H11.2684V9.10573V8.08109H12.3527H13.437V9.10573ZM2.02005 11.5734C1.83155 11.6776 1.83147 11.6785 1.83006 13.2909C1.82832 15.2808 1.58863 15.0486 3.64491 15.0486C5.71842 15.0486 5.49212 15.2691 5.47639 13.2639C5.46427 11.7216 5.46427 11.7216 5.34495 11.6228C5.20872 11.5098 2.21543 11.4654 2.02005 11.5734ZM6.37933 11.5765C6.16961 11.6788 6.16472 11.7215 6.17633 13.3411C6.19015 15.2746 5.94723 15.0486 8.0121 15.0486C10.0618 15.0486 9.82308 15.2806 9.82134 13.2909C9.81993 11.6682 9.82045 11.6727 9.62353 11.5715C9.48657 11.5013 6.52432 11.5058 6.37933 11.5765ZM10.7065 11.5876C10.5021 11.6945 10.5004 11.7281 10.5127 15.496C10.5243 19.0224 10.5243 19.0224 10.6422 19.136C10.8278 19.3149 13.8776 19.3149 14.0632 19.136C14.1811 19.0224 14.1811 19.0224 14.1938 15.4883C14.2075 11.6824 14.2081 11.6942 13.9902 11.5856C13.8086 11.4951 10.8799 11.4968 10.7065 11.5876ZM4.72015 13.2863V14.3109H3.65712H2.59408V13.2863V12.2616H3.65712H4.72015V13.2863ZM9.05732 13.2863V14.3109H7.99428H6.93125V13.2863V12.2616H7.99428H9.05732V13.2863ZM13.437 15.397V18.5324H12.3527H11.2684V15.397V12.2616H12.3527H13.437V15.397ZM2.09531 15.7332C1.83376 15.7819 1.8287 15.815 1.8287 17.475C1.8287 19.1147 1.82904 19.1173 2.06461 19.2122C2.24294 19.284 4.93794 19.2968 5.19843 19.227C5.4826 19.151 5.48553 19.1333 5.48553 17.4873C5.48553 15.8749 5.47962 15.8353 5.22534 15.7498C5.09523 15.7061 2.32004 15.6914 2.09531 15.7332ZM6.39872 15.7606C6.17272 15.8573 6.16587 15.9081 6.16587 17.4913C6.16587 19.4625 5.96398 19.2696 8.02754 19.2699C9.53164 19.2702 9.67545 19.2538 9.77678 19.0714C9.88584 18.8749 9.8349 15.9686 9.72014 15.8399C9.60027 15.7056 6.68982 15.6361 6.39872 15.7606ZM4.72015 17.4873V18.5324H3.65712H2.59408V17.4873V16.4421H3.65712H4.72015V17.4873ZM9.05732 17.4873V18.5324H7.99428H6.93125V17.4873V16.4421H7.99428H9.05732V17.4873Z" fill="white"/>
</svg>
