<svg width="16" height="16" viewBox="0 0 16 16" fill="none" xmlns="http://www.w3.org/2000/svg">
<path fill-rule="evenodd" clip-rule="evenodd" d="M7.63445 0.0365961C7.22934 0.150745 7.34173 0.046549 3.73934 3.64755C1.86817 5.518 0.29591 7.11027 0.245408 7.18592C-0.141942 7.76615 -0.063984 8.54253 0.431406 9.03838C0.718096 9.32533 1.08415 9.47407 1.50368 9.47407H1.71601V11.9765C1.71601 13.6706 1.72708 14.5325 1.75031 14.6448C1.86836 15.2155 2.32963 15.731 2.89835 15.9276C3.1058 15.9994 3.12031 16 4.62968 16C6.11823 16 6.15372 15.9986 6.23818 15.9355C6.28568 15.9 6.35357 15.832 6.38903 15.7845C6.45226 15.6998 6.45383 15.6577 6.46915 13.6087L6.48479 11.5192L6.57972 11.3652C6.69802 11.1733 6.93962 11.0199 7.1683 10.9914C7.25673 10.9804 7.69496 10.9761 8.14213 10.9818L8.95517 10.9921L9.11946 11.0832C9.27607 11.1701 9.3772 11.2735 9.47407 11.4459C9.51016 11.5102 9.52085 11.8978 9.53368 13.6112C9.549 15.6577 9.55056 15.6998 9.61379 15.7845C9.64925 15.832 9.71714 15.9 9.76464 15.9355C9.8491 15.9986 9.8846 16 11.3731 16C12.8825 16 12.897 15.9994 13.1045 15.9276C13.6732 15.731 14.1345 15.2155 14.2525 14.6448C14.2758 14.5325 14.2868 13.6706 14.2868 11.9765V9.47407H14.4991C15.2505 9.47407 15.858 8.9641 15.9813 8.22991C16.03 7.93996 15.983 7.63241 15.8461 7.3457C15.7565 7.1581 15.4845 6.87721 12.352 3.73729C10.4838 1.86455 8.88878 0.28937 8.8076 0.236913C8.72645 0.184486 8.58574 0.112935 8.4949 0.0779427C8.27769 -0.00575203 7.8565 -0.0260028 7.63445 0.0365961Z" fill="#2BC356"/>
</svg>
