<svg width="7" height="10" viewBox="0 0 7 10" fill="none" xmlns="http://www.w3.org/2000/svg">
<path fill-rule="evenodd" clip-rule="evenodd" d="M3.01837 0.0296686C1.69447 0.221323 0.593382 1.1318 0.178334 2.37809C-0.182981 3.46297 -0.00744186 4.47654 0.816608 6.06375C1.30919 7.01253 1.90517 7.93482 2.73272 9.02899C3.07929 9.48724 3.4904 10 3.51121 10C3.51963 10 3.63143 9.86611 3.75967 9.70243C5.28573 7.75475 6.44379 5.80831 6.83154 4.53937C6.97856 4.0583 7.00066 3.91444 6.99999 3.44307C6.99948 3.07768 6.99238 2.98288 6.95154 2.79573C6.661 1.46453 5.70284 0.457331 4.39729 0.110795C3.98934 0.00250121 3.43241 -0.0302626 3.01837 0.0296686ZM3.9141 2.01356C4.4193 2.16585 4.79064 2.53613 4.94981 3.04631C5.0193 3.26902 5.01922 3.61764 4.94962 3.83983C4.77785 4.38831 4.39726 4.75133 3.85209 4.88672C3.50861 4.97203 3.0725 4.91189 2.76692 4.73708C2.45462 4.55844 2.21943 4.27547 2.08717 3.91931C2.03506 3.779 2.03051 3.74158 2.03039 3.45351C2.03026 3.16382 2.03468 3.12773 2.0893 2.97323C2.22206 2.59758 2.50031 2.28415 2.84932 2.11703C3.10764 1.99334 3.27675 1.95868 3.56732 1.96991C3.69633 1.9749 3.85 1.99424 3.9141 2.01356Z" fill="#3EC865"/>
</svg>
