<svg width="76" height="55" viewBox="0 0 76 55" fill="none" xmlns="http://www.w3.org/2000/svg">
<mask id="mask0_137_458" style="mask-type:luminance" maskUnits="userSpaceOnUse" x="2" y="0" width="70" height="36">
<path d="M72 0H2V35.507H72V0Z" fill="white"/>
</mask>
<g mask="url(#mask0_137_458)">
<path d="M16.7094 25.3621C17.0425 25.3621 17.3723 25.2965 17.68 25.1691C17.9877 25.0417 18.2673 24.8548 18.5028 24.6193C18.7383 24.3839 18.9252 24.1043 19.0526 23.7966C19.1801 23.4889 19.2457 23.1591 19.2457 22.826C19.2457 18.1174 21.1162 13.6017 24.4456 10.2723C27.775 6.94283 32.2908 5.07236 36.9993 5.07236C41.7079 5.07236 46.2237 6.94283 49.553 10.2723C52.8826 13.6017 54.753 18.1174 54.753 22.826C54.7596 23.4942 55.0297 24.1328 55.5047 24.603C55.9795 25.0732 56.6208 25.337 57.2893 25.337C57.9575 25.337 58.5988 25.0732 59.0736 24.603C59.5486 24.1328 59.8188 23.4942 59.8253 22.826C59.8253 19.8284 59.2349 16.8602 58.0879 14.0909C56.9406 11.3215 55.2594 8.80516 53.1399 6.68557C51.0201 4.56598 48.5038 2.88463 45.7345 1.73753C42.965 0.590411 39.997 0 36.9993 0C34.0017 0 31.0337 0.590411 28.2642 1.73753C25.4948 2.88463 22.9785 4.56598 20.8589 6.68557C18.7393 8.80516 17.058 11.3215 15.9109 14.0909C14.7638 16.8602 14.1733 19.8284 14.1733 22.826C14.1733 23.4986 14.4405 24.1437 14.9161 24.6193C15.3917 25.0949 16.0368 25.3621 16.7094 25.3621Z" fill="url(#paint0_linear_137_458)"/>
<path d="M69.4629 30.4361H47.1357C48.7889 28.2444 49.6817 25.5731 49.6789 22.8276C49.6789 19.4644 48.3427 16.2389 45.9647 13.8607C43.5864 11.4825 40.3608 10.1465 36.9976 10.1465C33.6346 10.1465 30.4091 11.4825 28.0308 13.8607C25.6526 16.2389 24.3166 19.4644 24.3166 22.8276C24.3166 23.5003 24.5838 24.1454 25.0594 24.6211C25.5351 25.0967 26.1802 25.3639 26.8529 25.3639C27.5256 25.3639 28.1708 25.0967 28.6463 24.6211C29.122 24.1454 29.3892 23.5003 29.3892 22.8276C29.3892 21.3228 29.8353 19.8517 30.6714 18.6004C31.5074 17.3491 32.6957 16.3739 34.086 15.798C35.4764 15.222 37.0062 15.0713 38.4821 15.3649C39.958 15.6585 41.3139 16.3831 42.3778 17.4472C43.442 18.5112 44.1667 19.867 44.4604 21.3429C44.7539 22.8189 44.6032 24.3487 44.0274 25.7389C43.4514 27.1293 42.4763 28.3178 41.225 29.1538C39.9737 29.9899 38.5026 30.4361 36.9978 30.4361H4.53528C4.2001 30.4328 3.86757 30.4958 3.55692 30.6219C3.24628 30.7477 2.96369 30.9341 2.72548 31.1698C2.48728 31.4058 2.29818 31.6864 2.16913 31.9958C2.04008 32.3052 1.97363 32.6371 1.97363 32.9724C1.97363 33.3073 2.04008 33.6393 2.16913 33.9487C2.29818 34.2581 2.48728 34.5387 2.72548 34.7746C2.96369 35.0104 3.24628 35.1967 3.55692 35.3226C3.86757 35.4487 4.2001 35.5117 4.53528 35.5084H69.4629C70.1311 35.5018 70.7697 35.2317 71.2399 34.7567C71.7101 34.2819 71.9739 33.6406 71.9739 32.9724C71.9739 32.3039 71.7101 31.6626 71.2399 31.1878C70.7697 30.7128 70.1311 30.4426 69.4629 30.4361Z" fill="url(#paint1_linear_137_458)"/>
</g>
<path d="M6.031 54C5.85833 53.7204 5.65278 53.4203 5.41433 53.0997C5.18411 52.7708 4.92922 52.446 4.64967 52.1253C4.37833 51.7964 4.09467 51.484 3.79867 51.188C3.50267 50.8838 3.20667 50.6166 2.91067 50.3863V54H0.986667V45.453H2.91067V48.6843C3.41222 48.1581 3.91378 47.6113 4.41533 47.044C4.92511 46.4684 5.39789 45.9381 5.83367 45.453H8.11533C7.53156 46.1437 6.94367 46.8097 6.35167 47.451C5.76789 48.0923 5.15122 48.7378 4.50167 49.3873C5.18411 49.9547 5.84189 50.6289 6.475 51.41C7.11633 52.1911 7.72889 53.0544 8.31267 54H6.031ZM15.4535 54C15.363 53.704 15.2603 53.3998 15.1451 53.0873C15.0383 52.7749 14.9314 52.4624 14.8245 52.15H11.4945C11.3876 52.4624 11.2766 52.7749 11.1615 53.0873C11.0546 53.3998 10.9559 53.704 10.8655 54H8.86747C9.18814 53.0791 9.49236 52.2281 9.78014 51.447C10.0679 50.6659 10.3475 49.93 10.6188 49.2393C10.8984 48.5487 11.1697 47.895 11.4328 47.2783C11.7041 46.6534 11.9837 46.045 12.2715 45.453H14.1091C14.3887 46.045 14.6641 46.6534 14.9355 47.2783C15.2068 47.895 15.4781 48.5487 15.7495 49.2393C16.029 49.93 16.3127 50.6659 16.6005 51.447C16.8883 52.2281 17.1925 53.0791 17.5131 54H15.4535ZM13.1471 47.3893C13.106 47.5127 13.0444 47.6812 12.9621 47.895C12.8799 48.1088 12.7854 48.3554 12.6785 48.635C12.5716 48.9146 12.4524 49.2229 12.3208 49.56C12.1975 49.8971 12.07 50.2507 11.9385 50.6207H14.3681C14.2366 50.2507 14.1091 49.8971 13.9858 49.56C13.8625 49.2229 13.7433 48.9146 13.6281 48.635C13.5213 48.3554 13.4267 48.1088 13.3445 47.895C13.2623 47.6812 13.1965 47.5127 13.1471 47.3893ZM23.6638 54C23.4911 53.7204 23.2856 53.4203 23.0471 53.0997C22.8169 52.7708 22.562 52.446 22.2825 52.1253C22.0111 51.7964 21.7275 51.484 21.4315 51.188C21.1355 50.8838 20.8395 50.6166 20.5435 50.3863V54H18.6195V45.453H20.5435V48.6843C21.045 48.1581 21.5466 47.6113 22.0481 47.044C22.5579 46.4684 23.0307 45.9381 23.4665 45.453H25.7481C25.1644 46.1437 24.5765 46.8097 23.9845 47.451C23.4007 48.0923 22.784 48.7378 22.1345 49.3873C22.8169 49.9547 23.4747 50.6289 24.1078 51.41C24.7491 52.1911 25.3617 53.0544 25.9455 54H23.6638ZM33.9107 54.1727C32.5211 54.1727 31.4605 53.7862 30.7287 53.0133C30.0051 52.2404 29.6434 51.1428 29.6434 49.7203C29.6434 49.0132 29.7544 48.3842 29.9764 47.8333C30.1984 47.2742 30.5026 46.8056 30.889 46.4273C31.2755 46.0409 31.7359 45.749 32.2704 45.5517C32.8048 45.3543 33.3845 45.2557 34.0094 45.2557C34.3711 45.2557 34.7 45.2844 34.996 45.342C35.292 45.3913 35.551 45.453 35.773 45.527C35.995 45.5928 36.18 45.6627 36.328 45.7367C36.476 45.8107 36.5829 45.8682 36.6487 45.9093L36.0937 47.4633C35.8306 47.3236 35.5222 47.2043 35.1687 47.1057C34.8234 47.007 34.4287 46.9577 33.9847 46.9577C33.6887 46.9577 33.3968 47.007 33.109 47.1057C32.8295 47.2043 32.5787 47.3647 32.3567 47.5867C32.1429 47.8004 31.9702 48.08 31.8387 48.4253C31.7071 48.7707 31.6414 49.19 31.6414 49.6833C31.6414 50.078 31.6825 50.448 31.7647 50.7933C31.8551 51.1304 31.9949 51.4223 32.184 51.669C32.3814 51.9157 32.6362 52.113 32.9487 52.261C33.2611 52.4008 33.6394 52.4707 34.0834 52.4707C34.3629 52.4707 34.6137 52.4542 34.8357 52.4213C35.0577 52.3884 35.255 52.3514 35.4277 52.3103C35.6004 52.261 35.7525 52.2076 35.884 52.15C36.0156 52.0924 36.1348 52.039 36.2417 51.9897L36.772 53.5313C36.5007 53.6958 36.1184 53.8438 35.625 53.9753C35.1317 54.1069 34.5602 54.1727 33.9107 54.1727ZM40.8598 54.111C40.3911 54.111 39.9224 54.0946 39.4538 54.0617C38.9933 54.037 38.5123 53.9712 38.0108 53.8643V45.5763C38.4054 45.5023 38.8371 45.4489 39.3058 45.416C39.7744 45.3749 40.2102 45.3543 40.6131 45.3543C41.1558 45.3543 41.6532 45.3954 42.1054 45.4777C42.5659 45.5517 42.9605 45.6832 43.2894 45.8723C43.6183 46.0614 43.8732 46.3122 44.0541 46.6247C44.2432 46.9289 44.3378 47.3071 44.3378 47.7593C44.3378 48.4418 44.0089 48.9803 43.3511 49.375C43.8938 49.5806 44.2638 49.8601 44.4611 50.2137C44.6584 50.5672 44.7571 50.966 44.7571 51.41C44.7571 52.3062 44.4282 52.9804 43.7704 53.4327C43.1209 53.8849 42.1506 54.111 40.8598 54.111ZM39.8854 50.2753V52.483C40.0252 52.4994 40.1773 52.5118 40.3418 52.52C40.5062 52.5282 40.6871 52.5323 40.8844 52.5323C41.46 52.5323 41.9245 52.4501 42.2781 52.2857C42.6316 52.1212 42.8084 51.817 42.8084 51.373C42.8084 50.9783 42.6604 50.6988 42.3644 50.5343C42.0684 50.3617 41.645 50.2753 41.0941 50.2753H39.8854ZM39.8854 48.8077H40.8228C41.4148 48.8077 41.8382 48.7337 42.0931 48.5857C42.348 48.4294 42.4754 48.1828 42.4754 47.8457C42.4754 47.5003 42.3439 47.2578 42.0808 47.118C41.8176 46.9782 41.4312 46.9083 40.9214 46.9083C40.757 46.9083 40.5802 46.9124 40.3911 46.9207C40.202 46.9207 40.0334 46.9289 39.8854 46.9453V48.8077ZM47.9129 49.7203C47.9129 50.1397 47.9622 50.5179 48.0609 50.855C48.1678 51.1921 48.3158 51.484 48.5049 51.7307C48.7022 51.9691 48.9407 52.1541 49.2202 52.2857C49.4998 52.4172 49.8204 52.483 50.1822 52.483C50.5358 52.483 50.8523 52.4172 51.1319 52.2857C51.4197 52.1541 51.6581 51.9691 51.8472 51.7307C52.0445 51.484 52.1925 51.1921 52.2912 50.855C52.3981 50.5179 52.4515 50.1397 52.4515 49.7203C52.4515 49.301 52.3981 48.9228 52.2912 48.5857C52.1925 48.2403 52.0445 47.9484 51.8472 47.71C51.6581 47.4633 51.4197 47.2742 51.1319 47.1427C50.8523 47.0111 50.5358 46.9453 50.1822 46.9453C49.8204 46.9453 49.4998 47.0152 49.2202 47.155C48.9407 47.2866 48.7022 47.4757 48.5049 47.7223C48.3158 47.9608 48.1678 48.2527 48.0609 48.598C47.9622 48.9351 47.9129 49.3092 47.9129 49.7203ZM54.4372 49.7203C54.4372 50.4521 54.3262 51.0976 54.1042 51.6567C53.8904 52.2076 53.5944 52.6721 53.2162 53.0503C52.838 53.4203 52.3858 53.6999 51.8595 53.889C51.3415 54.0781 50.7824 54.1727 50.1822 54.1727C49.5984 54.1727 49.0475 54.0781 48.5295 53.889C48.0115 53.6999 47.5593 53.4203 47.1729 53.0503C46.7864 52.6721 46.4822 52.2076 46.2602 51.6567C46.0382 51.0976 45.9272 50.4521 45.9272 49.7203C45.9272 48.9886 46.0423 48.3472 46.2725 47.7963C46.5028 47.2372 46.8111 46.7686 47.1975 46.3903C47.5922 46.0121 48.0444 45.7284 48.5542 45.5393C49.0722 45.3502 49.6149 45.2557 50.1822 45.2557C50.766 45.2557 51.3169 45.3502 51.8349 45.5393C52.3529 45.7284 52.8051 46.0121 53.1915 46.3903C53.578 46.7686 53.8822 47.2372 54.1042 47.7963C54.3262 48.3472 54.4372 48.9886 54.4372 49.7203ZM56.041 54V45.453H57.9527V50.4973C58.2487 50.0533 58.5652 49.5929 58.9024 49.116C59.2395 48.6309 59.5766 48.1663 59.9137 47.7223C60.259 47.2701 60.5961 46.8467 60.925 46.452C61.2539 46.0573 61.554 45.7243 61.8254 45.453H63.3917V54H61.4924V48.4007C60.7688 49.2476 60.0864 50.1479 59.445 51.1017C58.8037 52.0554 58.2076 53.0216 57.6567 54H56.041ZM67.6326 45.453C67.7806 45.7243 67.9492 46.0614 68.1383 46.4643C68.3356 46.859 68.5371 47.2907 68.7426 47.7593C68.9564 48.2198 69.1661 48.6926 69.3716 49.1777C69.5772 49.6628 69.7704 50.1191 69.9513 50.5467C70.1322 50.1191 70.3254 49.6628 70.531 49.1777C70.7365 48.6926 70.9421 48.2198 71.1476 47.7593C71.3614 47.2907 71.5628 46.859 71.752 46.4643C71.9493 46.0614 72.122 45.7243 72.27 45.453H74.0213C74.1035 46.0203 74.1775 46.6576 74.2433 47.3647C74.3173 48.0636 74.379 48.7953 74.4283 49.56C74.4858 50.3164 74.5352 51.077 74.5763 51.8417C74.6256 52.6063 74.6667 53.3258 74.6996 54H72.825C72.8003 53.1696 72.7674 52.2651 72.7263 51.2867C72.6852 50.3082 72.6235 49.3216 72.5413 48.3267C72.3933 48.672 72.2288 49.0543 72.048 49.4737C71.8671 49.893 71.6862 50.3123 71.5053 50.7317C71.3326 51.151 71.1641 51.5539 70.9996 51.9403C70.8352 52.3186 70.6954 52.6433 70.5803 52.9147H69.236C69.1208 52.6433 68.9811 52.3186 68.8166 51.9403C68.6522 51.5539 68.4795 51.151 68.2986 50.7317C68.126 50.3123 67.9492 49.893 67.7683 49.4737C67.5874 49.0543 67.423 48.672 67.275 48.3267C67.1927 49.3216 67.1311 50.3082 67.09 51.2867C67.0488 52.2651 67.016 53.1696 66.9913 54H65.1166C65.1495 53.3258 65.1865 52.6063 65.2276 51.8417C65.277 51.077 65.3263 50.3164 65.3756 49.56C65.4332 48.7953 65.4948 48.0636 65.5606 47.3647C65.6346 46.6576 65.7127 46.0203 65.795 45.453H67.6326Z" fill="url(#paint2_linear_137_458)"/>
<defs>
<linearGradient id="paint0_linear_137_458" x1="14.1733" y1="12.681" x2="59.8253" y2="12.681" gradientUnits="userSpaceOnUse">
<stop stop-color="#C0EDCD"/>
<stop offset="0.161458" stop-color="#95E1AB"/>
<stop offset="0.3125" stop-color="#60D280"/>
<stop offset="0.751" stop-color="#36C65F"/>
<stop offset="1" stop-color="#36C65F"/>
</linearGradient>
<linearGradient id="paint1_linear_137_458" x1="1.97363" y1="22.8275" x2="71.9739" y2="22.8275" gradientUnits="userSpaceOnUse">
<stop stop-color="#C0EDCD"/>
<stop offset="0.161458" stop-color="#95E1AB"/>
<stop offset="0.3125" stop-color="#60D280"/>
<stop offset="0.751" stop-color="#36C65F"/>
<stop offset="1" stop-color="#36C65F"/>
</linearGradient>
<linearGradient id="paint2_linear_137_458" x1="0" y1="48" x2="76" y2="48" gradientUnits="userSpaceOnUse">
<stop stop-color="#60D280"/>
<stop offset="0.354167" stop-color="#60D280"/>
<stop offset="0.494792" stop-color="#95E1AB"/>
<stop offset="0.640625" stop-color="#36C65F"/>
<stop offset="1" stop-color="#36C65F"/>
</linearGradient>
</defs>
</svg>
