<svg width="14" height="14" viewBox="0 0 14 14" fill="none" xmlns="http://www.w3.org/2000/svg">
<path fill-rule="evenodd" clip-rule="evenodd" d="M0.73174 0.0758354C0.0788514 0.344131 -0.0740041 0.781683 0.029649 2.0854C0.538156 8.48196 5.5211 13.4625 11.9208 13.9707C13.1731 14.0702 13.6222 13.9288 13.8973 13.3484C14.0342 13.0594 14.0342 10.1271 13.8973 9.83809C13.6688 9.35611 13.2715 9.16399 12.4993 9.16213C12.0344 9.16101 11.2748 9.03536 10.6497 8.85621C9.74393 8.59663 9.84441 8.55133 7.7231 10.1759C7.69153 10.2001 7.10662 9.87371 6.74086 9.62788C5.80812 9.00091 5.02031 8.2176 4.4024 7.30283C4.13412 6.90566 3.80085 6.31429 3.82655 6.28104C3.83893 6.26503 4.09273 5.9261 4.39051 5.5279C4.6883 5.12969 4.96867 4.76142 5.01355 4.70954C5.29373 4.3857 5.34045 3.96891 5.16307 3.37563C4.98291 2.773 4.84195 1.90445 4.84058 1.38871C4.83869 0.663026 4.58243 0.23766 4.03669 0.0542515C3.78658 -0.029789 0.943611 -0.0112378 0.73174 0.0758354Z" fill="#1FCF51"/>
</svg>
