<svg width="17" height="13" viewBox="0 0 17 13" fill="none" xmlns="http://www.w3.org/2000/svg">
<path fill-rule="evenodd" clip-rule="evenodd" d="M15.3638 0.0706187C14.2987 0.452807 1.17284 5.37187 0.97951 5.46128C0.337093 5.7583 0.261989 6.15062 0.796789 6.41599C0.848423 6.4416 1.73687 6.71875 2.77111 7.03189L2.87238 7.06255C4.00438 7.40526 5.2288 7.24896 6.2384 6.63288L8.92153 4.99557C11.27 3.56246 13.2388 2.37382 13.2966 2.3542C13.4416 2.30487 13.5664 2.30947 13.6246 2.36631C13.6654 2.40609 13.6671 2.42605 13.6347 2.48451C13.6132 2.52319 12.0537 3.90475 10.1691 5.55463C8.28446 7.20451 6.73742 8.56732 6.73119 8.58314C6.725 8.59892 6.66125 9.42264 6.58953 10.4136L6.46947 12.0729C6.46415 12.1464 6.52769 12.2064 6.60083 12.1967C6.67875 12.1865 6.80213 12.1473 6.87502 12.1096C6.94793 12.0719 7.43857 11.6383 7.96539 11.1461C8.49218 10.6539 8.94146 10.2443 8.96377 10.236C8.98605 10.2276 9.82499 10.8073 10.8281 11.5242C11.8311 12.241 12.7304 12.863 12.8264 12.9063C13.0784 13.0199 13.3623 13.0311 13.5466 12.9349C13.7113 12.849 13.8722 12.6355 13.9399 12.4131C13.9661 12.3271 14.5396 9.74243 15.2143 6.66942C16.3376 1.55303 16.441 1.05769 16.4414 0.792137C16.4418 0.541242 16.4311 0.481563 16.3622 0.349507C16.3136 0.256402 16.2307 0.161343 16.1497 0.105785C15.9646 -0.0212652 15.658 -0.0349715 15.3638 0.0706187Z" fill="white"/>
</svg>
