<svg width="19" height="19" viewBox="0 0 19 19" fill="none" xmlns="http://www.w3.org/2000/svg">
<path fill-rule="evenodd" clip-rule="evenodd" d="M8.40814 0.0566944C4.01579 0.596165 0.563727 4.09761 0.109162 8.47446C0.0418028 9.12313 0.0826012 10.3514 0.192155 10.9713C0.365558 11.9529 0.652502 12.8165 1.09849 13.699C1.2427 13.9845 1.27554 14.3134 1.1906 14.6217L0.654855 16.5664C0.28759 17.8996 -0.00701167 18.9947 0.00012705 18.9999C0.00730565 19.0052 1.12585 18.7173 2.4858 18.3603C4.46557 17.8404 4.97829 17.7186 5.05813 17.7488C5.11296 17.7696 5.37319 17.8836 5.6364 18.0022C6.49129 18.3875 7.38906 18.643 8.33372 18.77C8.99024 18.8582 10.1424 18.8577 10.7811 18.7689C12.8773 18.4773 14.7501 17.556 16.2262 16.0904C16.9981 15.3241 17.5113 14.6231 18 13.668C18.44 12.8078 18.7505 11.8701 18.924 10.8773C19.0254 10.297 19.0253 8.59183 18.9238 7.9837C18.7523 6.95633 18.4875 6.13551 18.0352 5.22888C16.748 2.64881 14.3708 0.809615 11.5286 0.194674C10.6426 0.00298517 9.32126 -0.055441 8.40814 0.0566944ZM10.9007 1.69722C12.0447 1.9075 12.9934 2.28735 13.9317 2.91082C15.5335 3.97525 16.7127 5.62815 17.1788 7.46243C17.5211 8.80948 17.4942 10.3395 17.1054 11.6347C16.4768 13.729 14.9787 15.4919 13.0182 16.4442C11.8784 16.9977 10.8238 17.2391 9.54475 17.2391C8.0788 17.2391 6.77928 16.8856 5.45299 16.1259C5.30984 16.0439 5.14025 16.0213 4.98064 16.063L3.76191 16.3813C2.95464 16.5921 2.28803 16.7585 2.28053 16.751C2.27303 16.7436 2.43866 16.1158 2.64859 15.3559C2.85849 14.596 3.03177 13.9463 3.03364 13.9122C3.03552 13.878 2.93231 13.6807 2.80429 13.4735C0.923414 10.4311 1.41638 6.41872 3.98281 3.88119C5.25945 2.61892 6.87567 1.84321 8.68731 1.62322C9.17661 1.5638 10.3967 1.60459 10.9007 1.69722ZM5.82173 5.15578C5.5911 5.26927 5.16967 5.76395 4.99348 6.12802C4.64739 6.84317 4.65445 7.74465 5.01266 8.57938C5.45287 9.60513 6.60464 11.0616 7.74165 12.0302C8.53863 12.7091 9.20452 13.107 10.1828 13.4886C11.1822 13.8784 11.3739 13.9233 12.0373 13.923C12.5591 13.9228 12.6419 13.913 12.8845 13.8221C13.2834 13.6728 13.5811 13.4846 13.8777 13.1944C14.1078 12.9692 14.1541 12.8988 14.2295 12.6593C14.3234 12.3607 14.3771 11.8802 14.3351 11.7138C14.3131 11.6269 14.2005 11.5563 13.6339 11.2743C12.5958 10.7577 12.1773 10.58 11.9995 10.58C11.8538 10.58 11.829 10.5977 11.6528 10.8277C11.2501 11.3534 10.8806 11.7606 10.7844 11.7846C10.6691 11.8133 10.4425 11.7309 9.91924 11.4697C9.072 11.0468 8.38078 10.4812 7.78651 9.7248C7.46308 9.31312 7.17183 8.84396 7.17183 8.73468C7.17183 8.68787 7.32178 8.45516 7.50507 8.21757C7.86428 7.75186 7.96945 7.57809 7.96945 7.45018C7.96945 7.40531 7.89156 7.18591 7.79636 6.96267C7.70117 6.73939 7.50918 6.28027 7.36972 5.94236C7.19683 5.52354 7.07547 5.28694 6.98845 5.19915C6.90673 5.1167 6.79545 5.07033 6.67936 5.07034L6.42804 5.07036C6.06532 5.07036 5.96726 5.0842 5.82173 5.15578Z" fill="white"/>
</svg>
